<?xml version="1.0" encoding="utf-8"?>
<!-- Generator: Adobe Illustrator 27.0.0, SVG Export Plug-In . SVG Version: 6.00 Build 0)  -->
<svg version="1.1" id="Capa_1" xmlns="http://www.w3.org/2000/svg" xmlns:xlink="http://www.w3.org/1999/xlink" x="0px" y="0px"
	 viewBox="0 0 142.4 142.4" style="enable-background:new 0 0 142.4 142.4;" xml:space="preserve">
<style type="text/css">
	.st0{fill:#FFFFFF;}
</style>
<g id="SVGRepo_iconCarrier">
	<g>
		<g>
			<path class="st0" d="M97.7,2.5c0.3,0,0.6,0,1,0c0.8,9.7-2.9,16.9-7.4,22.2C86.8,29.9,80.8,35,71,34.2c-0.7-9.5,3.1-16.2,7.5-21.5
				C82.7,7.8,90.3,3.5,97.7,2.5z"/>
			<path class="st0" d="M127.2,103.4c0,0.1,0,0.2,0,0.3c-2.7,8.3-6.7,15.4-11.4,22c-4.4,6-9.7,14.1-19.2,14.1
				c-8.2,0-13.7-5.3-22.2-5.4c-8.9-0.1-13.9,4.4-22,5.6c-0.9,0-1.9,0-2.8,0c-6-0.9-10.8-5.6-14.4-9.9c-10.4-12.7-18.4-29-19.9-49.9
				c0-2.1,0-4.1,0-6.1c0.6-15,7.9-27.1,17.6-33c5.1-3.1,12.1-5.8,19.9-4.6c3.3,0.5,6.8,1.7,9.8,2.8c2.8,1.1,6.4,3,9.8,2.9
				c2.3-0.1,4.5-1.3,6.8-2.1c6.7-2.4,13.3-5.2,22-3.9c10.5,1.6,17.9,6.2,22.5,13.4C114.7,55,107.8,63.5,109,78
				C110,91.1,117.7,98.8,127.2,103.4z"/>
		</g>
	</g>
</g>
</svg>
