<?xml version="1.0" encoding="utf-8"?>
<!-- Generator: Adobe Illustrator 27.0.0, SVG Export Plug-In . SVG Version: 6.00 Build 0)  -->
<svg version="1.1" id="Capa_1" xmlns="http://www.w3.org/2000/svg" xmlns:xlink="http://www.w3.org/1999/xlink" x="0px" y="0px"
	 viewBox="0 0 128 128" style="enable-background:new 0 0 128 128;" xml:space="preserve">
<style type="text/css">
	.st0{fill:#FFFFFF;}
</style>
<g id="SVGRepo_iconCarrier">
	<g>
		<g>
			<path class="st0" d="M87.6,2.6c0.3,0,0.6,0,0.9,0c0.7,8.7-2.6,15.1-6.6,19.8c-3.9,4.6-9.3,9.2-18.1,8.5
				c-0.6-8.5,2.7-14.5,6.7-19.2C74.3,7.4,81.1,3.5,87.6,2.6z"/>
			<path class="st0" d="M114,92.7c0,0.1,0,0.2,0,0.2c-2.5,7.4-5.9,13.8-10.2,19.7c-3.9,5.4-8.7,12.6-17.2,12.6
				c-7.4,0-12.3-4.7-19.8-4.9c-8-0.1-12.4,4-19.7,5c-0.8,0-1.7,0-2.5,0c-5.4-0.8-9.7-5-12.8-8.8C22.5,105.2,15.3,90.6,14,71.9
				c0-1.8,0-3.7,0-5.5C14.5,53,21,42.2,29.7,36.9c4.6-2.8,10.8-5.2,17.8-4.1c3,0.5,6,1.5,8.7,2.5c2.5,1,5.7,2.7,8.7,2.6
				c2-0.1,4.1-1.1,6.1-1.9c6-2.2,11.9-4.7,19.7-3.5c9.3,1.4,16,5.6,20.1,12c-7.9,5-14.1,12.6-13.1,25.5
				C98.7,81.8,105.5,88.7,114,92.7z"/>
		</g>
	</g>
</g>
</svg>
