<?xml version="1.0" encoding="utf-8"?>
<!-- Generator: Adobe Illustrator 27.0.0, SVG Export Plug-In . SVG Version: 6.00 Build 0)  -->
<svg version="1.1" id="Capa_1" xmlns="http://www.w3.org/2000/svg" xmlns:xlink="http://www.w3.org/1999/xlink" x="0px" y="0px"
	 viewBox="0 0 64 64" style="enable-background:new 0 0 64 64;" xml:space="preserve">
<style type="text/css">
	.st0{fill:#FFFFFF;}
</style>
<g id="SVGRepo_bgCarrier">
</g>
<g id="SVGRepo_tracerCarrier">
</g>
<g id="SVGRepo_iconCarrier">
	<g>
		<g>
			<path class="st0" d="M44.3,0c0.1,0,0.3,0,0.5,0c0.4,4.5-1.4,7.9-3.5,10.3c-2.1,2.4-4.9,4.8-9.4,4.4c-0.3-4.4,1.4-7.6,3.5-10
				C37.4,2.5,40.9,0.4,44.3,0z"/>
			<path class="st0" d="M58.1,47c0,0,0,0.1,0,0.1c-1.3,3.9-3.1,7.2-5.3,10.3c-2,2.8-4.5,6.6-9,6.6c-3.8,0-6.4-2.5-10.3-2.5
				c-4.2-0.1-6.5,2.1-10.3,2.6c-0.4,0-0.9,0-1.3,0c-2.8-0.4-5.1-2.6-6.7-4.6c-4.8-5.9-8.6-13.5-9.3-23.3c0-1,0-1.9,0-2.9
				c0.3-7,3.7-12.6,8.2-15.4c2.4-1.5,5.6-2.7,9.3-2.1c1.6,0.2,3.2,0.8,4.5,1.3c1.3,0.5,3,1.4,4.5,1.4c1.1,0,2.1-0.6,3.2-1
				c3.1-1.1,6.2-2.4,10.3-1.8c4.9,0.7,8.3,2.9,10.5,6.2c-4.1,2.6-7.4,6.6-6.8,13.3C50.1,41.3,53.6,44.9,58.1,47z"/>
		</g>
	</g>
</g>
</svg>
